<svg width="116" height="24" fill="none" xmlns="http://www.w3.org/2000/svg"><path d="M36.051 13.775c.218-1.046.741-1.874 1.482-2.44.741-.568 1.657-.873 2.79-.873.96 0 1.831.262 2.572.829.741.523 1.264 1.35 1.482 2.484h-8.326zm4.272-7.105c-2.528 0-4.577.828-6.19 2.484-1.613 1.657-2.398 3.706-2.398 6.147 0 2.485.829 4.534 2.442 6.19 1.613 1.613 3.792 2.441 6.495 2.441 2.964 0 5.231-1.046 6.844-3.138a.436.436 0 00-.13-.61l-2.704-1.57a.464.464 0 00-.523.087c-.828.916-1.961 1.352-3.444 1.352-2.484 0-4.054-1.003-4.62-3.052h11.944c.218 0 .392-.13.392-.349.088-.48.088-.959.088-1.395 0-2.44-.785-4.49-2.354-6.146-1.483-1.613-3.488-2.441-5.842-2.441zm19.268.48h-.305s-.785 0-1.177.086c-.523.088-1.046.306-1.526.567-.087.087-.218.13-.305.218a4.868 4.868 0 00-1.09 1.22c-.087.131-.13.262-.218.393V7.585a.39.39 0 00-.392-.392h-3.4a.39.39 0 00-.393.392v15.52a.39.39 0 00.393.391h3.4a.39.39 0 00.392-.392v-7.41c0-1.788.523-3.009 1.526-3.706.567-.349 1.177-.61 1.83-.697.393-.044.83-.088 1.221-.088a.39.39 0 00.393-.392V7.585c.044-.261-.13-.436-.349-.436zm-32.39 7.192a27.233 27.233 0 00-2.484-.785c-.828-.218-1.526-.436-2.092-.697-.567-.262-.872-.61-.872-1.046 0-.393.174-.742.523-.96.392-.305.828-.392 1.395-.392 1.09 0 1.874.436 2.397 1.308.131.174.35.262.567.174l2.834-1.569a.44.44 0 00.174-.567 6.636 6.636 0 00-2.354-2.18c-1.09-.61-2.31-.915-3.618-.915-1.744 0-3.226.48-4.403 1.395-1.177.916-1.787 2.18-1.787 3.793 0 1.046.305 1.962.871 2.659a5.314 5.314 0 002.093 1.57c.828.304 1.657.61 2.485.828.828.218 1.526.48 2.092.74.567.262.872.61.872 1.047 0 .915-.741 1.395-2.267 1.395-1.482 0-2.485-.567-3.051-1.7-.088-.218-.393-.262-.567-.175l-2.877 1.613c-.175.087-.262.349-.175.567 1.265 2.354 3.488 3.531 6.67 3.531 1.875 0 3.444-.436 4.665-1.351 1.264-.916 1.874-2.18 1.874-3.88 0-1.09-.305-2.049-.872-2.79-.567-.785-1.264-1.308-2.092-1.613zM15.04 9.154l-3.4-1.7a.386.386 0 00-.566.35v8.15c0 1.352-.306 2.355-.96 3.052-.653.654-1.525 1.003-2.615 1.003-.96 0-1.744-.305-2.354-.872-.567-.567-.872-1.395-.872-2.485V13.95a.386.386 0 00-.567-.35l-3.4 1.745c-.218.087-.305.218-.305.348v1.482c0 2.093.567 3.75 1.744 4.97 1.177 1.177 2.659 1.787 4.403 1.787 2.223 0 3.836-.74 4.882-2.266v1.438a.39.39 0 00.392.392h3.4a.39.39 0 00.393-.392v-13.6c.043-.175-.044-.306-.175-.35zM72.582 7.15h-3.313V3.226a.386.386 0 00-.567-.349l-3.444 1.7c-.13.087-.218.218-.218.349v2.223H62.6a.39.39 0 00-.392.393v3.269a.39.39 0 00.392.392h2.441v6.8c0 2.224.61 3.793 1.787 4.665 1.134.828 3.052 1.134 5.755.872.218 0 .349-.174.349-.392v-3.052a.39.39 0 00-.393-.392 9.896 9.896 0 01-1.613 0c-.523-.044-.959-.175-1.22-.436-.305-.262-.436-.654-.436-1.22v-6.845h3.313a.39.39 0 00.392-.392v-3.27a.39.39 0 00-.392-.392zm6.931 0h-3.4a.39.39 0 00-.393.393V23.06a.39.39 0 00.393.392h3.4a.39.39 0 00.392-.392V7.54a.39.39 0 00-.392-.392zm23.932 6.626c.218-1.046.741-1.874 1.482-2.44.742-.568 1.657-.873 2.79-.873.959 0 1.831.262 2.572.829.741.523 1.265 1.35 1.483 2.484h-8.327zm10.201-4.62c-1.569-1.657-3.531-2.485-5.929-2.485-2.528 0-4.577.828-6.19 2.484-1.613 1.657-2.397 3.706-2.397 6.147 0 2.485.828 4.534 2.441 6.19 1.613 1.613 3.792 2.441 6.495 2.441 2.964 0 5.275-1.046 6.844-3.138.131-.175.087-.436-.131-.567l-2.746-1.57c-.174-.087-.349-.043-.479.088-.829.915-1.962 1.395-3.444 1.395-2.485 0-4.054-1.003-4.621-3.052h11.988c.174 0 .349-.13.392-.305a7.94 7.94 0 00.131-1.395c0-2.528-.785-4.577-2.354-6.234zM98.563 7.148H94.77c-.174 0-.305.087-.348.262l-3.88 11.16-3.923-11.16c-.044-.175-.218-.262-.35-.262h-3.792c-.261 0-.48.262-.349.523l5.885 15.563c.044.13.218.261.35.261h4.271c.175 0 .305-.087.35-.261l5.884-15.563c.13-.261-.043-.523-.305-.523zM77.813 0c-.698 0-1.308.262-1.831.785-.523.523-.785 1.133-.785 1.83 0 .698.262 1.308.785 1.831.567.567 1.264.829 2.049.742.566-.044 1.09-.306 1.526-.654.566-.523.871-1.177.871-1.918 0-.698-.261-1.308-.784-1.831C79.12.262 78.51 0 77.813 0z" fill="#fff"/><path d="M.567 13.165l3.4-1.744c.13-.087.218-.218.218-.348v-3.27a.386.386 0 00-.567-.349l-3.4 1.744c-.13.044-.218.174-.218.349v3.27c0 .26.305.479.567.348z" fill="#755DD5"/></svg>